inDegrees=no
num_controls=7
num_derivatives=13
num_iterations=155
num_multipliers=7
num_parameters=0
num_slacks=7
num_states=26
objective=5.392848
objective_accelerations=0.550619
objective_balance=0.062352
objective_effort=0.278812
objective_height=4.414659
objective_ligament=0.086405
solver_duration=1713.886765
status=Solve_Succeeded
success=true
DataType=double
version=3
OpenSimVersion=4.4-2022-07-23-0e9fedc
endheader
time	/jointset/ground_pelvis/pelvis_tilt/value	/jointset/ground_pelvis/pelvis_tx/value	/jointset/ground_pelvis/pelvis_ty/value	/jointset/hip_l/hip_flexion_l/value	/jointset/hip_l/hip_adduction_l/value	/jointset/hip_l/hip_rotation_l/value	/jointset/back/lumbar_extension/value	/jointset/patellofemoral_l/patellar_flexion_l/value	/jointset/knee_l/knee_flexion_l/value	/jointset/knee_l/knee_adduction_l/value	/jointset/knee_l/knee_rotation_l/value	/jointset/ankle_l/ankle_angle_l/value	/jointset/subtalar_l/subtalar_angle_l/value	/jointset/ground_pelvis/pelvis_tilt/speed	/jointset/ground_pelvis/pelvis_tx/speed	/jointset/ground_pelvis/pelvis_ty/speed	/jointset/hip_l/hip_flexion_l/speed	/jointset/hip_l/hip_adduction_l/speed	/jointset/hip_l/hip_rotation_l/speed	/jointset/back/lumbar_extension/speed	/jointset/patellofemoral_l/patellar_flexion_l/speed	/jointset/knee_l/knee_flexion_l/speed	/jointset/knee_l/knee_adduction_l/speed	/jointset/knee_l/knee_rotation_l/speed	/jointset/ankle_l/ankle_angle_l/speed	/jointset/subtalar_l/subtalar_angle_l/speed	/forceset/tau_hip_flexion_l	/forceset/tau_hip_adduction_l	/forceset/tau_hip_rotation_l	/forceset/tau_knee_flexion_l	/forceset/tau_ankle_angle_l	/forceset/tau_subtalar_angle_l	/forceset/tau_lumbar_extension	lambda_cid13_p0	lambda_cid13_p1	lambda_cid13_p2	lambda_cid13_p3	lambda_cid13_p4	lambda_cid13_p5	lambda_cid14_p0	/jointset/ground_pelvis/pelvis_tilt/accel	/jointset/ground_pelvis/pelvis_tx/accel	/jointset/ground_pelvis/pelvis_ty/accel	/jointset/hip_l/hip_flexion_l/accel	/jointset/hip_l/hip_adduction_l/accel	/jointset/hip_l/hip_rotation_l/accel	/jointset/back/lumbar_extension/accel	/jointset/patellofemoral_l/patellar_flexion_l/accel	/jointset/knee_l/knee_flexion_l/accel	/jointset/knee_l/knee_adduction_l/accel	/jointset/knee_l/knee_rotation_l/accel	/jointset/ankle_l/ankle_angle_l/accel	/jointset/subtalar_l/subtalar_angle_l/accel	gamma_cid13_p0	gamma_cid13_p1	gamma_cid13_p2	gamma_cid13_p3	gamma_cid13_p4	gamma_cid13_p5	gamma_cid14_p0
0.5	-0.4017569133557308	-0.05787393300671776	0.7790698802616928	1.075895457393723	-0.429827432691024	-0.2936632585533283	-0.2540388172004359	0.6369774371140747	0.6369774371140827	-0.1639396455191213	-0.1727633253719581	-0.002784924675591357	-0.08113984461455902	-0.9481838665775159	-0.2876832901051547	-0.4366707317912214	2.400566171694359	-0.2157332668334517	0.6678036330024387	-0.1176146238439523	1.520904047788288	1.520904047788399	0.0170501369485738	-0.0181500730331789	0.1787891838395479	-0.1514048649405192	-0.1991552622503855	0.02260415324525512	-0.00631713038465473	-0.1642933645752505	0.07234818199913004	0.05550157799246253	0.1862871026659225	-10.47575307791083	-25.53627121066761	7.46600808025917	-4.91590797528224	-527.4582400281736	-67.25285656672311	-33.38825000738924	0.723600353308257	0.551837512314842	-0.2908351327592679	-1.397571919635831	0.6138994915924646	-0.1299458760018148	1.076295414706812	-1.038475902625896	-1.038475902625897	-0.04177490749415409	0.1345578721463613	-0.1509886263590366	0.5612180048293465	-3.630149932658315e-08	-8.886460413161424e-07	-9.231222352755662e-08	-2.496678744558349e-07	-1.422179242119514e-07	1.09647311230791e-07	-1.485203337418043e-07
0.51	-0.4112005132505543	-0.06072283122808059	0.7746895572065666	1.099826834323096	-0.4319545808997524	-0.2869941589922316	-0.2551622742802276	0.6521326345334347	0.6521326345334446	-0.1637719641445393	-0.1729399415664864	-0.001005100785803137	-0.08262659632015806	-0.9404017702325672	-0.2820689276427547	-0.4393030821861736	2.385377916007734	-0.2096803549238314	0.6659233565803102	-0.107118068621544	1.509931478310121	1.509931478310212	0.0164895007564109	-0.01717533748389618	0.1771399124187861	-0.1459433824039018	-0.2054502062001552	0.02374549053327141	-0.006144656988382589	-0.1654490881703903	0.07234981804473914	0.0565564461537774	0.1909295371592574	-10.65025972104068	-25.89815075944504	7.448662215330678	-4.992586280261121	-530.5259285395133	-66.94746223950753	-32.73276831070398	0.825678258541312	0.5703007297427906	-0.235843397815848	-1.629135084787336	0.6035377733576422	-0.2311154877060034	1.030144099680344	-1.157211560556631	-1.157211560559543	-0.06287016235476174	0.07864133734242197	-0.1772708684516527	0.5390755367347635	-4.18771345743028e-08	-8.437646775042332e-07	-7.872673096004746e-08	-2.376973523731773e-07	-1.363602388944156e-07	1.162176560687672e-07	-1.461664421226641e-07
0.52	-0.4205622593852335	-0.06351477280151131	0.7702856289665001	1.123596392157293	-0.4340206898428408	-0.2803466715878254	-0.2561820041030577	0.6671719934399789	0.6671719934399938	-0.1636098215693323	-0.1731068684173321	0.0007571554960761681	-0.08405864076865946	-0.9318131145495026	-0.2762919605187329	-0.4413917687791739	2.36820235265665	-0.2035254137057881	0.6634812016626758	-0.09686917245223764	1.497736345226177	1.49773634522625	0.0159423770731516	-0.01621220429368767	0.1752756622573518	-0.1404634135210081	-0.2117451501498251	0.02488682782132717	-0.005972183592036942	-0.166604811765523	0.07235145409035891	0.05761131431513915	0.1955719716526665	-10.8325986247447	-26.25973801246839	7.432502415279105	-5.058709072816554	-533.7143020287773	-66.67320472744709	-32.06882571898883	0.8849122209312278	0.584358444639223	-0.1821023723688445	-1.795033452527552	0.6343053532770544	-0.242321575102936	1.026763604086331	-1.282988623781138	-1.282988623781167	-0.03907240571344821	0.1322374003315829	-0.1939843744934885	0.5649152740846657	-4.665921034144438e-08	-7.937305091234118e-07	-6.407992800673704e-08	-2.243339566596561e-07	-1.293886579833561e-07	1.214327265308446e-07	-1.427052645597745e-07
0.53	-0.4298342768754023	-0.06624819292348882	0.765863538420127	1.147184557434142	-0.4360247741828485	-0.2737262443915093	-0.257100497958295	0.682083400812757	0.6820834008127634	-0.1634530446738635	-0.1732640783225947	0.002499729778698867	-0.0854358108760573	-0.9224644414010276	-0.2703697867586924	-0.4429340401312238	2.349113702643312	-0.1972812858308647	0.660510076485008	-0.08688270152990618	1.484352568598497	1.484352568598603	0.01541800956569197	-0.01523445187529044	0.1732072617544644	-0.1349725496008919	-0.2178574606715053	0.02580730031661659	-0.005838066608740714	-0.1678361709726851	0.07249661928649799	0.05858163001256168	0.2000340574940936	-10.9653368198279	-26.59605686263367	7.415475778664807	-5.129515214160389	-536.8034431084486	-66.3668412114136	-31.39899719051204	0.9787446067899993	0.5994449465757491	-0.1264696073186374	-2.013323023558581	0.6211204749603618	-0.3387346858323454	0.9766233958573636	-1.394928114431087	-1.394928114426024	-0.05851535127271946	0.07987838589754884	-0.2180790056787833	0.5410095383370375	-5.762344032644493e-08	-7.327335182250305e-07	-2.580430618958924e-08	-2.009955019757138e-07	-1.30297667440375e-07	1.276981114853476e-07	-1.407681372518374e-07
0.54	-0.4390090276850844	-0.06892173168688802	0.7614287891420941	1.170572327761305	-0.4379660864500332	-0.2671383737863104	-0.2579207201923955	0.6968551992328175	0.6968551992328205	-0.1633013907390588	-0.1734116438590332	0.004220657832795829	-0.08675810482678147	-0.9123597784531845	-0.2643156888030693	-0.4439235151110393	2.328123362717113	-0.1909709991415343	0.6569698834379923	-0.07721484822554336	1.469814554684037	1.469814554684177	0.01491778493781107	-0.01428333052474559	0.1709464165518846	-0.1294881821862956	-0.2239697711930954	0.02672777281193688	-0.005703949625330479	-0.1690675301798487	0.07264178448264305	0.05955194571001916	0.2044961433355927	-11.10522695948125	-26.93237792153319	7.399882476273072	-5.194856881704903	-540.0067031030893	-66.09044693587938	-30.72576531975032	1.036110180804631	0.6107432837557836	-0.07154309792193678	-2.175371435099587	0.6475371161584709	-0.3561351489724734	0.9630400804924921	-1.513836081137027	-1.513836081137031	-0.03424382979771458	0.1269111867611724	-0.2324733144319087	0.5636159729807348	-7.542750050992783e-08	-6.596074470944551e-07	3.861383862584703e-08	-1.666208118351354e-07	-1.399256279429274e-07	1.351255465165769e-07	-1.405171932046988e-07
0.55	-0.4480791403215094	-0.07153415896238888	0.7569869211489804	1.193740923718331	-0.4398440030129541	-0.2605883607194857	-0.258645916357931	0.711475785391101	0.7114757853910934	-0.1631548035290821	-0.1735494720959581	0.005917936312774413	-0.08802566833536966	-0.9015400677546284	-0.2581545563947298	-0.4443568271202153	2.305289195987839	-0.1846077441952104	0.6529402804018855	-0.06789650238413909	1.454118497877309	1.454118497877385	0.01440277310528333	-0.01328683744808205	0.1684770414237807	-0.1240323192875707	-0.2299097824674069	0.02755757599435644	-0.005593369762687373	-0.170284613539606	0.07276227937034083	0.06038232046008337	0.2087738702996569	-11.24914088799852	-27.20881714600948	7.376568777076041	-5.188014834997779	-543.0848601358748	-65.72266743393874	-30.0549829921857	1.123305279635144	0.6210501306507219	-0.01526582910816313	-2.383434175724024	0.6314978311240177	-0.440342618854837	0.9054142103745291	-1.625089268710707	-1.625089268720227	-0.05977737749311543	0.08539300794831897	-0.2590246565720562	0.5354921906331092	-8.200029886355621e-08	-5.999711001166119e-07	6.664211321059416e-08	-1.457504407361642e-07	-1.36796342762933e-07	1.383958120360295e-07	-1.363047042837408e-07
0.5600000000000001	-0.4570373750978924	-0.07408452453155077	0.7525435119204361	1.216671979031293	-0.44165813139696	-0.2540814376306015	-0.259280092590169	0.7259338912236596	0.7259338912236438	-0.1630132959409255	-0.1736774604741628	0.007589550032558863	-0.08923888906650755	-0.8899842064459184	-0.2519033475352763	-0.4442317621970522	2.28061523390325	-0.1782133633587064	0.6483518878487751	-0.05901086156632922	1.437318489539789	1.437318489539802	0.01390186057224194	-0.01231535877824743	0.1658134645127842	-0.1186196266962536	-0.2358497937416849	0.02838737917679853	-0.005482789899975823	-0.1715016968993605	0.0728827742580475	0.0612126952101755	0.2130515972637399	-11.3967897666969	-27.48590125875646	7.354841607224278	-5.195739183432041	-546.2357873142427	-65.37912758323135	-29.39221601106335	1.183340302835198	0.6287585739786362	0.04013228854589443	-2.543330506162757	0.6537622941945058	-0.4678930523731192	0.8764990757735038	-1.734626387295332	-1.734626387295326	-0.03142396990045429	0.1219083053954578	-0.2713136710103908	0.5549819114992041	-7.50955830213596e-08	-5.56522422122047e-07	5.100254351851579e-08	-1.410852524871213e-07	-1.183583627638828e-07	1.366774741413503e-07	-1.273383615141994e-07
0.5700000000000001	-0.4658765642700922	-0.07657198857529128	0.748104128327877	1.239347438272749	-0.4434081560883819	-0.2476230369536482	-0.2598275736435222	0.7402186204104497	0.7402186204104522	-0.1628766217933585	-0.1737957164147899	0.009233611995119571	-0.09039816607537719	-0.8777391075906235	-0.2455795956130613	-0.4435516403529406	2.254183077372204	-0.1717929058412287	0.6432412994740009	-0.05056988203166458	1.419450411066944	1.419450411066975	0.01343070028303321	-0.01133708795274903	0.1629677088959552	-0.113249237587081	-0.2415615795683815	0.02903838307693101	-0.005398543915535621	-0.1727966119935417	0.07307685905284018	0.06193905270308049	0.217112448203591	-11.5159826558121	-27.72501113043835	7.329593721581342	-5.165166826601455	-549.2548807298338	-64.99152305463907	-28.73709969158985	1.262273176790551	0.6356356521335504	0.09592794089021715	-2.737189377012122	0.6360692950015792	-0.5457714808098658	0.8152174530224242	-1.839414636941932	-1.839414636939213	-0.05540331000957217	0.08563897877804665	-0.2959067518460117	0.5261284049928846	-6.798981330222552e-08	-5.135336087052272e-07	3.531733935754525e-08	-1.359605116752508e-07	-1.007129909743825e-07	1.337067580854171e-07	-1.181145668607449e-07
0.58	-0.4745898667537506	-0.07899592466965154	0.7436743411154679	1.261749769718812	-0.4450939998417325	-0.241218368110592	-0.2602931808893855	0.7543193656005913	0.7543193656005894	-0.1627447474990552	-0.1739042191455923	0.01084827635254859	-0.09150412699428169	-0.8648068687387825	-0.2391977576592234	-0.4423124861669322	2.225989674823687	-0.1653771757446726	0.6376055210680166	-0.04263610006861956	1.400521690207589	1.400521690207639	0.01294188993068633	-0.01036471682121758	0.1599339434860569	-0.1079564087032424	-0.247273365395052	0.02968938697708855	-0.005314297931360668	-0.1740915270876843	0.07327094384764628	0.06266541019602226	0.2211732991434522	-11.63987306814122	-27.96448594238123	7.305760427849616	-5.144415066530275	-552.3615657682417	-64.62886351550601	-28.08946693334374	1.320768302144236	0.6403757803032623	0.1519387569252655	-2.895579709656911	0.6528168100101778	-0.5729310586151002	0.7750595614494838	-1.946754864597535	-1.946754864597542	-0.03495398252809147	0.120728366602142	-0.3089156296242071	0.5394698664324565	-6.062220597591712e-08	-4.71143688691983e-07	1.957270426034323e-08	-1.302372838048145e-07	-8.409985313220314e-08	1.291050379125024e-07	-1.085554860328919e-07
0.59	-0.4831705786990225	-0.08135581522272406	0.7392597146649802	1.28386169581554	-0.4467156898326181	-0.2348726122398072	-0.2606820126649928	0.7682256819118742	0.7682256819118899	-0.162617675864029	-0.1740029500012619	0.01243172037895941	-0.09255749641347708	-0.851225987541212	-0.232775969576605	-0.4405204574897435	2.196114597501589	-0.1589673639973574	0.6314559838377362	-0.03523056504885221	1.380575190649951	1.380575190650011	0.0124716525834365	-0.009386870253820076	0.1567254226395715	-0.1027354608682332	-0.2527360778728551	0.03021754437458599	-0.005250039248897491	-0.1754001427505778	0.07349156008294723	0.06325835067598654	0.2249993058374107	-11.74662598288343	-28.15099300445008	7.275738047111409	-5.07469619936461	-555.2751776336148	-64.19146014622027	-27.44928854182001	1.393177842668383	0.6437124522548439	0.2066720158930405	-3.075614454831285	0.6341528961917322	-0.6494878354826554	0.7082539726458792	-2.043534120487486	-2.04353412048597	-0.05326324869292684	0.08553029645449417	-0.3312514759063069	0.5107797577675922	-5.311078033579946e-08	-4.292678971515484e-07	3.546331246117455e-09	-1.241298327915612e-07	-6.82659837726355e-08	1.232295485934947e-07	-9.875742008277046e-08
